<?xml version="1.0" encoding="UTF-8" standalone="no"?>
<svg
   width="38"
   height="38"
   viewBox="0 0 38 38"
   fill="none"
   version="1.1"
   id="svg8"
   sodipodi:docname="red_luminai.svg"
   inkscape:version="1.4.2 (ebf0e940, 2025-05-08)"
   xmlns:inkscape="http://www.inkscape.org/namespaces/inkscape"
   xmlns:sodipodi="http://sodipodi.sourceforge.net/DTD/sodipodi-0.dtd"
   xmlns="http://www.w3.org/2000/svg"
   xmlns:svg="http://www.w3.org/2000/svg">
  <sodipodi:namedview
     id="namedview8"
     pagecolor="#ffffff"
     bordercolor="#000000"
     borderopacity="0.25"
     inkscape:showpageshadow="2"
     inkscape:pageopacity="0.0"
     inkscape:pagecheckerboard="0"
     inkscape:deskcolor="#d1d1d1"
     inkscape:zoom="9.71976"
     inkscape:cx="1.5946896"
     inkscape:cy="13.786349"
     inkscape:window-width="1512"
     inkscape:window-height="945"
     inkscape:window-x="0"
     inkscape:window-y="37"
     inkscape:window-maximized="0"
     inkscape:current-layer="svg8" />
  <g
     clip-path="url(#clip0_45_102)"
     id="g3"
     style="fill:#ff0000;fill-opacity:1">
    <path
       d="M22.1608 8.22871L23.3679 9.01231C23.5126 9.10436 23.6336 9.23803 23.7173 9.39964C23.8015 9.56131 23.8456 9.74522 23.8456 9.93244C23.8456 10.1196 23.8015 10.3034 23.7173 10.465C23.6336 10.6267 23.5126 10.7604 23.3679 10.8524L19.0738 13.6434C18.9285 13.7344 18.7656 13.7822 18.5994 13.7822C18.4332 13.7822 18.2703 13.7344 18.1257 13.6434L13.8315 10.8524C13.6862 10.7604 13.5658 10.6267 13.4815 10.465C13.3973 10.3034 13.3531 10.1196 13.3531 9.93244C13.3531 9.74522 13.3973 9.56131 13.4815 9.39964C13.5658 9.23803 13.6862 9.10436 13.8315 9.01231L15.038 8.22871C15.1817 8.13768 15.3434 8.08984 15.5085 8.08984C15.6729 8.08984 15.8347 8.13768 15.9783 8.22871L18.1257 9.62871C18.2703 9.71968 18.4332 9.76745 18.5994 9.76745C18.7656 9.76745 18.9285 9.71968 19.0738 9.62871L21.2205 8.22871C21.3641 8.13768 21.5259 8.08984 21.691 8.08984C21.8555 8.08984 22.0171 8.13768 22.1608 8.22871Z"
       fill="black"
       id="path1"
       style="fill:#ff0000;fill-opacity:1" />
    <path
       d="M22.1608 8.22871L23.3679 9.01231C23.5126 9.10436 23.6336 9.23803 23.7173 9.39964C23.8015 9.56131 23.8456 9.74522 23.8456 9.93244C23.8456 10.1196 23.8015 10.3034 23.7173 10.465C23.6336 10.6267 23.5126 10.7604 23.3679 10.8524L19.0738 13.6434C18.9285 13.7344 18.7656 13.7822 18.5994 13.7822C18.4332 13.7822 18.2703 13.7344 18.1257 13.6434L13.8315 10.8524C13.6862 10.7604 13.5658 10.6267 13.4815 10.465C13.3973 10.3034 13.3531 10.1196 13.3531 9.93244C13.3531 9.74522 13.3973 9.56131 13.4815 9.39964C13.5658 9.23803 13.6862 9.10436 13.8315 9.01231L15.038 8.22871C15.1817 8.13768 15.3434 8.08984 15.5085 8.08984C15.6729 8.08984 15.8347 8.13768 15.9783 8.22871L18.1257 9.62871C18.2703 9.71968 18.4332 9.76745 18.5994 9.76745C18.7656 9.76745 18.9285 9.71968 19.0738 9.62871L21.2205 8.22871C21.3641 8.13768 21.5259 8.08984 21.691 8.08984C21.8555 8.08984 22.0171 8.13768 22.1608 8.22871Z"
       fill="url(#paint0_angular_45_102)"
       id="path2"
       style="fill:#ff0000;fill-opacity:1" />
    <path
       fill-rule="evenodd"
       clip-rule="evenodd"
       d="M37.4464 11.1189C37.9098 11.9196 38.1537 12.8281 38.1542 13.7531C38.1477 14.6735 37.9011 15.5764 37.4383 16.3722C36.9754 17.168 36.3122 17.829 35.5154 18.2899L34.3379 18.9717L35.5154 19.6535C36.317 20.1152 36.983 20.7798 37.4464 21.5805C37.9098 22.3812 38.1537 23.2897 38.1542 24.2147C38.1595 25.1451 37.9181 26.0604 37.4547 26.8673C36.9913 27.6742 36.3216 28.3439 35.5154 28.8083L21.712 36.7943C20.9106 37.257 20.0019 37.5 19.0768 37.5C18.1523 37.5 17.2436 37.257 16.4422 36.7943L2.6389 28.8083C1.83709 28.3466 1.17108 27.6819 0.707837 26.8812C0.244596 26.0805 0.000468689 25.1721 0 24.2472C0.000468689 23.3222 0.244596 22.4137 0.707837 21.613C1.17108 20.8123 1.83709 20.1477 2.6389 19.686L3.81624 19.0041L2.6389 18.3224C1.83703 17.8587 1.17113 17.1925 0.707952 16.3906C0.244829 15.5886 0.000703033 14.679 0 13.7531C0.000468689 12.8281 0.244596 11.9196 0.707837 11.1189C1.17108 10.3182 1.83709 9.65364 2.6389 9.19183L16.4422 1.20571C17.2436 0.743376 18.1523 0.5 19.0768 0.5C20.0019 0.5 20.9106 0.743376 21.712 1.20571L35.5154 9.19183C36.317 9.65364 36.983 10.3182 37.4464 11.1189ZM3.84307 21.6657C3.7904 21.6219 3.74547 21.569 3.71061 21.5094C3.65624 21.4165 3.62824 21.3105 3.62964 21.2029C3.62824 21.0952 3.65624 20.9892 3.71061 20.8962C3.76497 20.8033 3.84366 20.7269 3.93816 20.6753L5.26982 19.8637L16.3695 26.2673C17.1704 26.7296 18.0791 26.9729 19.0042 26.9729C19.9293 26.9729 20.8379 26.7296 21.6388 26.2673L32.7385 19.8637L34.0702 20.6753C34.127 20.7081 34.1779 20.7497 34.2213 20.7984C34.2658 20.8394 34.3033 20.8869 34.3338 20.9395C34.3877 21.0322 34.4158 21.1372 34.4158 21.2441C34.4158 21.3511 34.3877 21.4563 34.3338 21.5489C34.2805 21.6415 34.2032 21.7184 34.1106 21.7717L20.6159 29.5631C20.1384 29.8396 19.5965 29.9852 19.0446 29.9852C18.4927 29.9852 17.9508 29.8396 17.4733 29.5631L3.97858 21.7717C3.92837 21.7428 3.88279 21.7071 3.84307 21.6657ZM3.65425 10.7173C3.65255 10.6234 3.67294 10.5306 3.71337 10.4464C3.72391 10.4212 3.73621 10.3966 3.75009 10.3729C3.80505 10.2795 3.8839 10.2024 3.97858 10.1496L16.6455 2.84515C17.3749 2.42499 18.2027 2.20375 19.0446 2.20375C19.887 2.20375 20.7143 2.42499 21.4436 2.84515L34.1106 10.1496C34.2055 10.2024 34.284 10.2795 34.3391 10.3729C34.3941 10.4663 34.4229 10.5727 34.4229 10.6811C34.4229 10.7895 34.3941 10.896 34.3391 10.9895C34.3151 11.0306 34.2863 11.0686 34.2535 11.1027C34.2084 11.1532 34.1545 11.1959 34.0948 11.2286L20.6001 19.0362C20.1226 19.3127 19.5807 19.4582 19.0287 19.4582C18.4768 19.4582 17.9349 19.3127 17.4575 19.0362L3.96282 11.2448C3.86832 11.1932 3.78965 11.1168 3.73527 11.0239C3.68091 10.931 3.6529 10.8249 3.65425 10.7173Z"
       fill="url(#paint1_angular_45_102)"
       id="path3"
       style="fill:#ff0000;fill-opacity:1" />
  </g>
  <defs
     id="defs8">
    <radialGradient
       id="paint0_angular_45_102"
       cx="0"
       cy="0"
       r="1"
       gradientUnits="userSpaceOnUse"
       gradientTransform="translate(18.5994 10.936) rotate(90.3971) scale(3.05972 5.63963)">
      <stop
         offset="0.651042"
         stop-color="#0F0F0F"
         id="stop3" />
      <stop
         offset="0.999625"
         stop-color="#211C30"
         id="stop4" />
      <stop
         offset="1"
         stop-color="#0F0F0F"
         id="stop5" />
    </radialGradient>
    <radialGradient
       id="paint1_angular_45_102"
       cx="0"
       cy="0"
       r="1"
       gradientUnits="userSpaceOnUse"
       gradientTransform="translate(19.0771 19) rotate(90.2222) scale(19.8876 20.5081)">
      <stop
         offset="0.651042"
         stop-color="#0F0F0F"
         id="stop6" />
      <stop
         offset="0.999625"
         stop-color="#211C30"
         id="stop7" />
      <stop
         offset="1"
         stop-color="#0F0F0F"
         id="stop8" />
    </radialGradient>
    <clipPath
       id="clip0_45_102">
      <rect
         width="38"
         height="37"
         fill="white"
         transform="translate(0 0.5)"
         id="rect8" />
    </clipPath>
  </defs>
  <path
     style="fill:#ff0000;stroke-width:0.0799851;stroke:#ff0000;stroke-opacity:1;fill-opacity:1"
     d="M 1.0676567,16.825087 C 0.62463844,16.190474 0.39992549,15.72904 0.39992549,15.453945 c 0,-0.338387 0.50195017,-2.110382 0.84412281,-2.979941 C 1.5815145,11.616406 2.2432416,10.278467 2.6948927,9.5405568 2.9915571,9.0558647 3.0353783,9.0220906 4.3876336,8.2359175 5.1511394,7.7920311 5.7917459,7.4447713 5.8112037,7.464229 5.8306613,7.4836867 5.6457096,7.728838 5.4001996,8.0090098 3.4084201,10.281995 1.9258728,13.537491 1.4946483,16.585132 l -0.1001908,0.70809 z"
     id="path38" />
  <path
     style="fill:#ff0000;stroke:#ff0000;stroke-width:0.0799851;stroke-opacity:1;fill-opacity:1"
     d="m 18.234236,26.875327 c -0.243257,-0.03859 -0.679628,-0.156313 -0.969715,-0.26161 -0.290088,-0.105295 -3.060559,-1.652989 -6.156604,-3.43932 C 8.0118714,21.388068 5.4188149,19.903528 5.3455687,19.875421 5.1442897,19.798183 5.0976565,19.214414 5.1986732,18.036535 5.3058523,16.7868 5.5169861,15.768087 5.8922851,14.68988 c 0.220145,-0.63246 0.6704238,-1.662743 0.7838402,-1.793504 0.010121,-0.01167 2.4111888,1.361171 5.3357047,3.050756 2.924517,1.689585 5.458495,3.143697 5.631064,3.23136 0.72583,0.368713 1.714389,0.409623 2.513351,0.104011 0.197963,-0.07572 2.796507,-1.547804 5.774542,-3.271291 2.978036,-1.723486 5.446899,-3.133611 5.486363,-3.133611 0.205556,0 1.019519,2.13725 1.289262,3.385259 0.328115,1.518078 0.402857,3.708045 0.122886,3.60061 -0.06402,-0.02457 -2.565187,1.37129 -5.693746,3.177582 -5.630115,3.250578 -6.230391,3.575362 -6.918532,3.743313 -0.536177,0.130862 -1.463185,0.173389 -1.982784,0.09096 z"
     id="path39" />
  <path
     style="fill:#ff0000;stroke:#ff0000;stroke-width:0.0799851;stroke-opacity:1;fill-opacity:1"
     d="m 2.7281853,18.309777 -0.5112112,-0.32336 0.050989,-0.6032 c 0.1318641,-1.55995 0.6957022,-3.597004 1.4273845,-5.156905 l 0.4007213,-0.854313 0.4514998,0.26584 c 0.2483249,0.146211 0.4498543,0.296007 0.447843,0.332879 -0.00201,0.03687 -0.1405589,0.354986 -0.3078835,0.70692 -0.3891422,0.818484 -0.950977,2.523877 -1.1199075,3.399367 -0.072152,0.37393 -0.175519,1.102031 -0.2297048,1.618002 l -0.09852,0.938129 z"
     id="path40" />
  <path
     style="fill:#ff0000;stroke:#ff0000;stroke-width:0.0308875;stroke-opacity:1;fill-opacity:1"
     d="M 2.0201561,17.881856 C 1.8006326,17.708089 1.4517108,17.360695 1.4517108,17.315901 c 0,-0.113328 0.1656187,-1.164382 0.248768,-1.578738 0.3080593,-1.535149 0.910112,-3.203417 1.6762774,-4.64491 l 0.2525208,-0.475102 0.016817,0.150783 c 0.026013,0.233243 0.1351593,0.394417 0.3538764,0.522567 0.049739,0.02914 0.028236,0.08882 -0.2392723,0.66408 -0.8811819,1.894918 -1.3769421,3.650912 -1.5538446,5.503753 -0.02629,0.275356 -0.051922,0.504769 -0.05696,0.509807 -0.00504,0.005 -0.06342,-0.03379 -0.1297371,-0.08629 z"
     id="path41" />
  <path
     style="fill:#ff0000;stroke:#ff0000;stroke-width:0.0118457;stroke-opacity:1;fill-opacity:1"
     d="m 3.8564441,19.664889 c -0.00365,-0.0059 -0.01,-0.209799 -0.014102,-0.453096 -0.035583,-2.10841 0.3863125,-4.192236 1.2395439,-6.122348 0.1034909,-0.234109 0.412132,-0.86801 0.4403111,-0.904331 0.01595,-0.02056 0.045977,-0.0051 0.5154036,0.265492 l 0.4984666,0.287323 -0.063179,0.119491 c -0.1610888,0.30467 -0.4291847,0.907133 -0.5855761,1.315902 -0.1013933,0.265017 -0.2849237,0.811925 -0.3597507,1.072032 -0.3713841,1.290972 -0.5504623,2.64369 -0.5237703,3.956447 0.00431,0.211741 0.01097,0.404973 0.01481,0.429405 l 0.00698,0.04442 H 4.4443324 c -0.3347573,0 -0.5840662,-0.0046 -0.5878883,-0.01074 z"
     id="path42" />
  <path
     style="fill:#ff0000;stroke:#ff0000;stroke-width:0.0118457;stroke-opacity:1;fill-opacity:1"
     d="m 3.5536955,18.844199 c -0.14659,-0.08517 -0.2680748,-0.156152 -0.2699663,-0.157735 -0.00588,-0.0049 0.1143685,-1.133978 0.1520197,-1.42735 0.065009,-0.506541 0.136481,-0.971063 0.1904598,-1.23787 0.089951,-0.44461 0.3391934,-1.305164 0.5695232,-1.966378 0.2094245,-0.601201 0.3614209,-0.982848 0.5802776,-1.457016 0.1867711,-0.404651 0.2597806,-0.579453 0.2610778,-0.62508 8.892e-4,-0.03127 -0.011063,-0.04849 -0.073503,-0.10592 -0.041011,-0.03772 -0.070389,-0.06858 -0.065286,-0.06858 0.0051,0 0.1496135,0.08103 0.3211334,0.180063 0.2749297,0.158743 0.3099382,0.182236 0.2956693,0.198415 -0.019824,0.02248 -0.1562183,0.294782 -0.3095925,0.618087 -0.5429269,1.144463 -0.9488924,2.435888 -1.1654752,3.707517 -0.1288456,0.756495 -0.184264,1.341194 -0.2117238,2.233824 l -0.00809,0.262882 z"
     id="path43" />
  <path
     style="fill:#ff0000;stroke:#ff0000;stroke-width:0.0118457;stroke-opacity:1;fill-opacity:1"
     d=""
     id="path44" />
</svg>
